<svg width="69" height="81" viewBox="0 0 69 81" fill="none" xmlns="http://www.w3.org/2000/svg">
<path d="M26.8452 12L16.6712 17.9136V21.1856L12 23.9287V41.3022L16.6712 44.0452V47.3932L26.7922 53.2878L33.1762 49.5312V15.7091L26.8452 12ZM23.0552 20.9213C23.24 20.9213 23.4206 20.9771 23.5743 21.0815C23.7279 21.1859 23.8477 21.3343 23.9184 21.5079C23.9891 21.6816 24.0076 21.8726 23.9715 22.057C23.9355 22.2413 23.8465 22.4106 23.7158 22.5435C23.5852 22.6764 23.4187 22.7669 23.2375 22.8036C23.0563 22.8402 22.8684 22.8214 22.6977 22.7495C22.527 22.6776 22.3811 22.5558 22.2784 22.3995C22.1758 22.2432 22.121 22.0595 22.121 21.8716C22.121 21.6196 22.2194 21.3779 22.3946 21.1997C22.5698 21.0215 22.8075 20.9213 23.0552 20.9213ZM23.0895 44.7943C22.9047 44.7943 22.7241 44.7386 22.5705 44.6342C22.4168 44.5298 22.2971 44.3814 22.2264 44.2077C22.1556 44.0341 22.1371 43.843 22.1732 43.6587C22.2092 43.4744 22.2982 43.3051 22.4289 43.1722C22.5595 43.0393 22.726 42.9488 22.9072 42.9121C23.0885 42.8755 23.2763 42.8943 23.447 42.9662C23.6177 43.0381 23.7636 43.1599 23.8663 43.3162C23.9689 43.4724 24.0237 43.6562 24.0237 43.8441C24.0229 44.0956 23.9241 44.3365 23.749 44.514C23.5739 44.6915 23.3367 44.7912 23.0895 44.7912V44.7943ZM31.6191 36.741L24.5999 32.6233L27.5708 30.8876C27.912 31.1347 28.325 31.258 28.7434 31.2377C29.1618 31.2174 29.5614 31.0547 29.878 30.7757C30.1946 30.4967 30.4098 30.1176 30.4892 29.6993C30.5685 29.2809 30.5073 28.8476 30.3154 28.4688C30.1235 28.0901 29.812 27.7879 29.431 27.6108C29.05 27.4338 28.6216 27.392 28.2145 27.4924C27.8073 27.5927 27.4452 27.8293 27.1861 28.1641C26.9271 28.4989 26.7861 28.9126 26.786 29.3387C26.786 29.3989 26.786 29.459 26.786 29.5161L17.6024 34.8754C17.2607 34.629 16.8475 34.5066 16.4292 34.5277C16.0109 34.5488 15.6117 34.7122 15.2956 34.9917C14.9796 35.2713 14.765 35.6507 14.6865 36.0692C14.6079 36.4876 14.6698 36.9208 14.8622 37.2991C15.0547 37.6775 15.3665 37.9791 15.7477 38.1556C16.129 38.332 16.5574 38.3731 16.9643 38.2722C17.3712 38.1713 17.733 37.9343 17.9916 37.5992C18.2502 37.264 18.3906 36.8503 18.3902 36.4243C18.3933 36.3663 18.3933 36.3081 18.3902 36.2501L23.0365 33.5387L31.6191 38.5782V48.6348L26.7891 51.4855L23.8618 49.7815V45.583C24.2494 45.4023 24.5645 45.0923 24.755 44.7043C24.9454 44.3163 24.9997 43.8738 24.9088 43.4501C24.8179 43.0265 24.5872 42.6472 24.2552 42.3752C23.9231 42.1032 23.5096 41.9549 23.0833 41.9549C22.6569 41.9549 22.2434 42.1032 21.9113 42.3752C21.5793 42.6472 21.3487 43.0265 21.2577 43.4501C21.1668 43.8738 21.2211 44.3163 21.4115 44.7043C21.602 45.0923 21.9172 45.4023 22.3047 45.583V48.8597L18.2252 46.462V40.7605L23.077 37.9098L27.9476 40.7605V43.7348C27.56 43.9155 27.2448 44.2255 27.0544 44.6135C26.8639 45.0015 26.8097 45.444 26.9006 45.8677C26.9915 46.2913 27.2221 46.6706 27.5542 46.9426C27.8862 47.2146 28.2998 47.3629 28.7261 47.3629C29.1524 47.3629 29.566 47.2146 29.898 46.9426C30.2301 46.6706 30.4607 46.2913 30.5516 45.8677C30.6425 45.444 30.5883 45.0015 30.3978 44.6135C30.2074 44.2255 29.8922 43.9155 29.5046 43.7348V39.8736L23.0801 36.0727L16.6712 39.8356V42.2271L13.5571 40.3963V24.8536L16.6712 23.0228V25.4934L21.4577 28.2586L19.4677 29.421C19.1257 29.1755 18.7125 29.0539 18.2945 29.0757C17.8764 29.0975 17.4776 29.2615 17.1621 29.5414C16.8466 29.8212 16.6327 30.2008 16.5546 30.6191C16.4764 31.0374 16.5387 31.4703 16.7314 31.8483C16.924 32.2263 17.2359 32.5276 17.617 32.7038C17.9981 32.88 18.4264 32.9209 18.8331 32.82C19.2398 32.7191 19.6014 32.4822 19.8599 32.1473C20.1184 31.8124 20.2589 31.3989 20.2587 30.9731C20.2619 30.9129 20.2619 30.8527 20.2587 30.7925L23.4196 28.9396L29.4392 25.4079V21.1856C29.8268 21.005 30.142 20.6949 30.3324 20.3069C30.5229 19.9189 30.5771 19.4764 30.4862 19.0527C30.3953 18.6291 30.1647 18.2498 29.8326 17.9778C29.5006 17.7058 29.087 17.5575 28.6607 17.5575C28.2344 17.5575 27.8208 17.7058 27.4888 17.9778C27.1567 18.2498 26.9261 18.6291 26.8352 19.0527C26.7443 19.4764 26.7985 19.9189 26.989 20.3069C27.1794 20.6949 27.4946 21.005 27.8822 21.1856V24.4925L23.021 27.3432L18.2283 24.5716V18.8702L22.2767 16.4915V20.1358C21.8891 20.3165 21.574 20.6265 21.3835 21.0145C21.1931 21.4025 21.1388 21.845 21.2297 22.2687C21.3206 22.6924 21.5513 23.0717 21.8833 23.3437C22.2154 23.6156 22.6289 23.7639 23.0552 23.7639C23.4816 23.7639 23.8951 23.6156 24.2272 23.3437C24.5592 23.0717 24.7898 22.6924 24.8807 22.2687C24.9717 21.845 24.9174 21.4025 24.7269 21.0145C24.5365 20.6265 24.2213 20.3165 23.8338 20.1358V15.5666L26.8452 13.815L31.6285 16.6245L31.6191 36.741ZM27.7202 29.3323C27.7202 29.1444 27.775 28.9607 27.8777 28.8044C27.9803 28.6481 28.1262 28.5264 28.297 28.4544C28.4677 28.3825 28.6555 28.3637 28.8367 28.4004C29.018 28.437 29.1844 28.5275 29.3151 28.6604C29.4457 28.7933 29.5347 28.9626 29.5708 29.147C29.6068 29.3313 29.5883 29.5223 29.5176 29.696C29.4469 29.8696 29.3272 30.018 29.1735 30.1224C29.0199 30.2268 28.8393 30.2826 28.6545 30.2826C28.4067 30.2826 28.1691 30.1825 27.9939 30.0043C27.8187 29.8261 27.7202 29.5844 27.7202 29.3323ZM17.4435 36.4243C17.4435 36.6122 17.3887 36.7959 17.2861 36.9522C17.1834 37.1085 17.0375 37.2303 16.8668 37.3022C16.6961 37.3741 16.5083 37.3929 16.327 37.3563C16.1458 37.3196 15.9793 37.2291 15.8487 37.0962C15.718 36.9633 15.629 36.794 15.593 36.6097C15.5569 36.4253 15.5754 36.2343 15.6462 36.0606C15.7169 35.887 15.8366 35.7386 15.9902 35.6342C16.1439 35.5298 16.3245 35.474 16.5093 35.474C16.633 35.4724 16.7558 35.4957 16.8706 35.5427C16.9854 35.5897 17.0899 35.6594 17.178 35.7478C17.266 35.8362 17.336 35.9416 17.3837 36.0577C17.4314 36.1738 17.456 36.2984 17.456 36.4243H17.4435ZM28.7136 44.514C28.8984 44.514 29.079 44.5697 29.2327 44.6741C29.3863 44.7785 29.5061 44.9269 29.5768 45.1006C29.6475 45.2742 29.666 45.4653 29.6299 45.6496C29.5939 45.8339 29.5049 46.0032 29.3743 46.1361C29.2436 46.269 29.0771 46.3595 28.8959 46.3962C28.7147 46.4329 28.5268 46.414 28.3561 46.3421C28.1854 46.2702 28.0395 46.1484 27.9368 45.9921C27.8342 45.8359 27.7794 45.6521 27.7794 45.4642C27.7794 45.2122 27.8778 44.9705 28.053 44.7923C28.2282 44.6141 28.4659 44.514 28.7136 44.514ZM19.3245 30.9794C19.3245 31.1674 19.2697 31.3511 19.167 31.5073C19.0644 31.6636 18.9185 31.7854 18.7478 31.8573C18.577 31.9292 18.3892 31.9481 18.208 31.9114C18.0267 31.8747 17.8603 31.7842 17.7296 31.6513C17.599 31.5184 17.51 31.3491 17.4739 31.1648C17.4379 30.9805 17.4564 30.7894 17.5271 30.6158C17.5978 30.4421 17.7176 30.2937 17.8712 30.1893C18.0248 30.0849 18.2055 30.0292 18.3902 30.0292C18.638 30.0292 18.8756 30.1293 19.0508 30.3075C19.2261 30.4857 19.3245 30.7274 19.3245 30.9794ZM27.7327 19.4594C27.7327 19.2714 27.7875 19.0877 27.8901 18.9314C27.9928 18.7752 28.1387 18.6534 28.3094 18.5815C28.4801 18.5095 28.668 18.4907 28.8492 18.5274C29.0304 18.5641 29.1969 18.6546 29.3275 18.7874C29.4582 18.9203 29.5472 19.0897 29.5832 19.274C29.6193 19.4583 29.6008 19.6494 29.5301 19.823C29.4594 19.9966 29.3396 20.145 29.186 20.2495C29.0323 20.3539 28.8517 20.4096 28.6669 20.4096C28.5432 20.4113 28.4204 20.3879 28.3056 20.3409C28.1908 20.2939 28.0863 20.2242 27.9983 20.1358C27.9102 20.0474 27.8402 19.9421 27.7925 19.826C27.7448 19.7098 27.7202 19.5852 27.7202 19.4594H27.7327Z" fill="black"/>
<path d="M52.4965 21.1952V17.9232L42.3256 12.0095L35.9915 15.7186V49.5503L42.3723 53.3069L52.4965 47.4122V44.0642L57.1677 41.3212V23.9477L52.4965 21.1952ZM55.6106 40.3963L50.9394 43.1393V46.4873L42.3755 51.4697L37.5485 48.619V39.4651L42.2198 36.722V29.2405L37.5485 26.4975V16.634L42.3288 13.8245L50.9394 18.8386V22.1201L55.6106 24.8631V40.3963Z" fill="black"/>
<path d="M15.0857 64.677V59.2526H16.2501V62.883C16.4165 62.7195 16.6149 62.5924 16.8326 62.5099C17.0503 62.4274 17.2827 62.3911 17.515 62.4035C17.8144 62.3905 18.1132 62.441 18.3918 62.5518C18.6705 62.6627 18.9228 62.8312 19.1324 63.0466C19.342 63.262 19.5041 63.5194 19.6083 63.802C19.7124 64.0845 19.7562 64.386 19.7368 64.6867C19.7232 65.2976 19.4721 65.8788 19.0373 66.3057C18.6026 66.7325 18.0188 66.971 17.4112 66.97C16.062 66.9537 15.0857 66.0339 15.0857 64.677ZM18.5724 64.677C18.5724 64.3673 18.45 64.0702 18.2323 63.8512C18.0145 63.6323 17.7192 63.5092 17.4112 63.5092C17.1033 63.5092 16.8079 63.6323 16.5902 63.8512C16.3724 64.0702 16.2501 64.3673 16.2501 64.677C16.2457 64.8326 16.2726 64.9875 16.3291 65.1324C16.3856 65.2773 16.4706 65.4093 16.579 65.5205C16.6874 65.6316 16.817 65.7196 16.96 65.7792C17.103 65.8389 17.2564 65.8689 17.4112 65.8675C17.5665 65.8708 17.7209 65.842 17.8647 65.783C18.0085 65.724 18.1388 65.6361 18.2476 65.5246C18.3564 65.413 18.4413 65.2803 18.4972 65.1345C18.553 64.9888 18.5786 64.8331 18.5724 64.677Z" fill="black"/>
<path d="M20.8979 59.2526H22.0623V66.8493H20.8979V59.2526Z" fill="black"/>
<path d="M23.2234 64.6769C23.237 64.0661 23.4881 63.4849 23.9228 63.058C24.3576 62.6312 24.9413 62.3927 25.5489 62.3937C26.8982 62.3937 27.8712 63.3102 27.8712 64.6769C27.8577 65.2873 27.607 65.868 27.173 66.2947C26.7389 66.7215 26.156 66.9604 25.5489 66.9602C24.1997 66.9537 23.2234 66.0339 23.2234 64.6769ZM26.7101 64.6769C26.7178 64.5206 26.6932 64.3644 26.6378 64.2182C26.5824 64.0719 26.4975 63.9388 26.3884 63.8272C26.2793 63.7156 26.1483 63.628 26.0039 63.5699C25.8594 63.5118 25.7045 63.4845 25.5489 63.4896C25.3936 63.486 25.2393 63.5143 25.0953 63.5729C24.9513 63.6315 24.8207 63.7191 24.7116 63.8303C24.6026 63.9415 24.5173 64.074 24.461 64.2196C24.4048 64.3652 24.3787 64.5208 24.3845 64.6769C24.3806 64.8327 24.4079 64.9877 24.4648 65.1326C24.5217 65.2776 24.607 65.4095 24.7156 65.5206C24.8243 65.6317 24.954 65.7197 25.0972 65.7793C25.2404 65.8389 25.394 65.8689 25.5489 65.8675C25.7042 65.8708 25.8585 65.842 26.0024 65.783C26.1462 65.724 26.2765 65.6361 26.3853 65.5245C26.4941 65.413 26.579 65.2803 26.6349 65.1345C26.6907 64.9888 26.7163 64.833 26.7101 64.6769Z" fill="black"/>
<path d="M28.7438 66.8918H29.8433C29.8346 67.0513 29.8591 67.2109 29.9153 67.3604C29.9714 67.5099 30.058 67.6459 30.1694 67.7598C30.2809 67.8737 30.4147 67.963 30.5624 68.0219C30.7101 68.0808 30.8684 68.108 31.0271 68.1019C31.1885 68.104 31.3485 68.0726 31.4972 68.0096C31.6459 67.9466 31.78 67.8534 31.8912 67.7357C32.0023 67.6181 32.0881 67.4787 32.1432 67.3262C32.1982 67.1736 32.2213 67.0113 32.211 66.8494V66.4743C32.0386 66.6388 31.8346 66.7662 31.6115 66.8487C31.3884 66.9312 31.151 66.9669 30.9136 66.9537C30.6144 66.9662 30.3159 66.9153 30.0374 66.8043C29.759 66.6933 29.5069 66.5247 29.2974 66.3095C29.0879 66.0942 28.9257 65.837 28.8214 65.5547C28.7171 65.2723 28.673 64.9711 28.6919 64.6705C28.7055 64.0596 28.9566 63.4784 29.3913 63.0516C29.8261 62.6247 30.4098 62.3862 31.0174 62.3872C32.3667 62.3872 33.343 63.3038 33.343 64.6705V66.8428C33.343 67.1474 33.2825 67.4489 33.165 67.7296C33.0475 68.0103 32.8753 68.2645 32.6586 68.4773C32.4419 68.6901 32.1851 68.8571 31.9032 68.9685C31.6214 69.0799 31.3202 69.1335 31.0174 69.1261C29.6584 69.1261 28.7438 68.2683 28.7438 66.8918ZM32.1915 64.677C32.1999 64.5182 32.176 64.3594 32.1213 64.2103C32.0666 64.0611 31.9824 63.9247 31.8736 63.8093C31.7648 63.694 31.6338 63.6021 31.4885 63.5394C31.3433 63.4766 31.1869 63.4442 31.0288 63.4442C30.8707 63.4442 30.7143 63.4766 30.569 63.5394C30.4238 63.6021 30.2928 63.694 30.184 63.8093C30.0752 63.9247 29.9909 64.0611 29.9362 64.2103C29.8816 64.3594 29.8577 64.5182 29.866 64.677C29.8577 64.8358 29.8816 64.9946 29.9362 65.1437C29.9909 65.2929 30.0752 65.4293 30.184 65.5447C30.2928 65.66 30.4238 65.7519 30.569 65.8146C30.7143 65.8774 30.8707 65.9098 31.0288 65.9098C31.1869 65.9098 31.3433 65.8774 31.4885 65.8146C31.6338 65.7519 31.7648 65.66 31.8736 65.5447C31.9824 65.4293 32.0666 65.2929 32.1213 65.1437C32.176 64.9946 32.1999 64.8358 32.1915 64.677Z" fill="black"/>
<path d="M34.2673 64.6769C34.2809 64.0666 34.5315 63.4859 34.9656 63.0592C35.3996 62.6324 35.9826 62.3935 36.5896 62.3937C37.9421 62.3937 38.834 63.2483 38.9151 64.6769V65.0749H35.409C35.4796 65.3345 35.6351 65.5627 35.8505 65.7225C36.0659 65.8822 36.3286 65.9644 36.5961 65.9556C36.7653 65.9601 36.9334 65.9268 37.0882 65.858C37.243 65.7891 37.3807 65.6866 37.4913 65.5576L38.1951 66.2883C37.9859 66.5007 37.7368 66.6692 37.4623 66.784C37.1878 66.8987 36.8934 66.9575 36.5961 66.957C36.2906 66.9758 35.9846 66.9302 35.6977 66.8231C35.4108 66.716 35.1494 66.5498 34.9301 66.3351C34.7108 66.1204 34.5386 65.862 34.4244 65.5765C34.3103 65.2909 34.2568 64.9845 34.2673 64.6769ZM37.7734 64.1779C37.6962 63.9278 37.5388 63.7106 37.3258 63.5601C37.1128 63.4096 36.8561 63.3344 36.5961 63.3461C36.339 63.3414 36.0873 63.4201 35.8782 63.5705C35.669 63.7209 35.5136 63.935 35.4349 64.1811L37.7734 64.1779Z" fill="black"/>
<path d="M40.0471 64.6769V62.5078H41.2115V64.6769C41.2071 64.8325 41.234 64.9874 41.2905 65.1324C41.347 65.2773 41.432 65.4093 41.5404 65.5204C41.6488 65.6316 41.7784 65.7196 41.9214 65.7792C42.0644 65.8388 42.2179 65.8689 42.3726 65.8675C42.5279 65.8707 42.6823 65.842 42.8261 65.783C42.9699 65.724 43.1003 65.636 43.209 65.5245C43.3178 65.413 43.4027 65.2803 43.4586 65.1345C43.5144 64.9887 43.54 64.833 43.5338 64.6769V62.5078H44.7047V64.6769C44.6936 65.2926 44.4401 65.8787 43.9999 66.3068C43.5597 66.7348 42.9687 66.9698 42.3564 66.9602C42.0517 66.9788 41.7464 66.9327 41.4605 66.8251C41.1746 66.7174 40.9143 66.5506 40.6966 66.3353C40.4789 66.12 40.3085 65.8612 40.1967 65.5755C40.0848 65.2898 40.0338 64.9837 40.0471 64.6769Z" fill="black"/>
<path d="M45.9436 65.8675H48.827C48.8746 65.8721 48.9226 65.866 48.9675 65.8497C49.0124 65.8335 49.0533 65.8074 49.087 65.7735C49.1208 65.7395 49.1467 65.6985 49.1629 65.6533C49.179 65.6081 49.1851 65.5598 49.1806 65.512C49.1808 65.4666 49.1715 65.4216 49.1534 65.38C49.1353 65.3384 49.1088 65.301 49.0755 65.2703C49.0422 65.2396 49.0029 65.2162 48.9601 65.2017C48.9174 65.1871 48.872 65.1817 48.827 65.1858H47.147C46.9722 65.1863 46.7991 65.152 46.6376 65.0849C46.476 65.0179 46.3292 64.9194 46.2057 64.7951C46.0821 64.6708 45.9842 64.5232 45.9175 64.3608C45.8508 64.1983 45.8167 64.0242 45.8171 63.8485C45.8238 63.4962 45.9662 63.1603 46.2142 62.9114C46.4623 62.6626 46.7966 62.5203 47.147 62.5144H49.719V63.4929H47.2507C47.1612 63.4903 47.0741 63.5228 47.008 63.5838C46.942 63.6447 46.9022 63.7291 46.8972 63.8191C46.8927 63.8669 46.8987 63.9152 46.9149 63.9604C46.9311 64.0056 46.957 64.0466 46.9908 64.0806C47.0245 64.1146 47.0653 64.1406 47.1103 64.1569C47.1552 64.1731 47.2032 64.1792 47.2507 64.1747H48.9211C49.0967 64.1702 49.2713 64.2016 49.4344 64.2671C49.5976 64.3325 49.7458 64.4305 49.8701 64.5553C49.9945 64.68 50.0923 64.8288 50.1578 64.9927C50.2232 65.1566 50.2549 65.3322 50.2509 65.5088C50.2419 65.8606 50.0989 66.1955 49.8514 66.4443C49.604 66.6932 49.2709 66.837 48.9211 66.8461H45.9339L45.9436 65.8675Z" fill="black"/>
<path d="M51.0909 65.8903L53.9127 63.4897H51.1526V62.5111H55.4079V63.4505L52.5862 65.8708H55.5052V66.8493H51.0909V65.8903Z" fill="black"/>
</svg>
