<!-- PLACEHOLDER: Replace with Figma export (light background version) -->
<svg width="286" height="74" viewBox="0 0 286 74" fill="none" xmlns="http://www.w3.org/2000/svg">
<path d="M26.8452 12.1387L16.6712 18.0523V21.3243L12 24.0673V41.4408L16.6712 44.1839V47.5319L26.7922 53.4265L33.1762 49.6699V15.8478L26.8452 12.1387ZM23.0552 21.06C23.24 21.06 23.4206 21.1157 23.5743 21.2202C23.7279 21.3246 23.8477 21.473 23.9184 21.6466C23.9891 21.8202 24.0076 22.0113 23.9715 22.1956C23.9355 22.38 23.8465 22.5493 23.7158 22.6822C23.5852 22.8151 23.4187 22.9056 23.2375 22.9422C23.0563 22.9789 22.8684 22.9601 22.6977 22.8882C22.527 22.8162 22.3811 22.6944 22.2784 22.5382C22.1758 22.3819 22.121 22.1982 22.121 22.0102C22.121 21.7582 22.2194 21.5165 22.3946 21.3383C22.5698 21.1601 22.8075 21.06 23.0552 21.06ZM23.0895 44.933C22.9047 44.933 22.7241 44.8773 22.5705 44.7729C22.4168 44.6684 22.2971 44.52 22.2264 44.3464C22.1556 44.1728 22.1371 43.9817 22.1732 43.7974C22.2092 43.6131 22.2982 43.4437 22.4289 43.3108C22.5595 43.178 22.726 43.0875 22.9072 43.0508C23.0885 43.0141 23.2763 43.0329 23.447 43.1049C23.6177 43.1768 23.7636 43.2986 23.8663 43.4548C23.9689 43.6111 24.0237 43.7948 24.0237 43.9828C24.0229 44.2342 23.9241 44.4751 23.749 44.6526C23.5739 44.8302 23.3367 44.9298 23.0895 44.9298V44.933ZM31.6191 36.8797L24.5999 32.762L27.5708 31.0262C27.912 31.2734 28.325 31.3967 28.7434 31.3764C29.1618 31.3561 29.5614 31.1934 29.878 30.9144C30.1946 30.6354 30.4098 30.2563 30.4892 29.8379C30.5685 29.4196 30.5073 28.9862 30.3154 28.6075C30.1235 28.2288 29.812 27.9266 29.431 27.7495C29.05 27.5724 28.6216 27.5307 28.2145 27.631C27.8073 27.7314 27.4452 27.968 27.1861 28.3028C26.9271 28.6376 26.7861 29.0513 26.786 29.4773C26.786 29.5375 26.786 29.5977 26.786 29.6547L17.6024 35.0141C17.2607 34.7677 16.8475 34.6452 16.4292 34.6663C16.0109 34.6874 15.6117 34.8509 15.2956 35.1304C14.9796 35.41 14.765 35.7894 14.6865 36.2078C14.6079 36.6263 14.6698 37.0594 14.8622 37.4378C15.0547 37.8161 15.3665 38.1178 15.7477 38.2942C16.129 38.4707 16.5574 38.5118 16.9643 38.4109C17.3712 38.31 17.733 38.0729 17.9916 37.7378C18.2502 37.4027 18.3906 36.989 18.3902 36.563C18.3933 36.5049 18.3933 36.4468 18.3902 36.3887L23.0365 33.6774L31.6191 38.7168V48.7735L26.7891 51.6242L23.8618 49.9201V45.7217C24.2494 45.541 24.5645 45.231 24.755 44.843C24.9454 44.455 24.9997 44.0125 24.9088 43.5888C24.8179 43.1651 24.5872 42.7858 24.2552 42.5139C23.9231 42.2419 23.5096 42.0936 23.0833 42.0936C22.6569 42.0936 22.2434 42.2419 21.9113 42.5139C21.5793 42.7858 21.3487 43.1651 21.2577 43.5888C21.1668 44.0125 21.2211 44.455 21.4115 44.843C21.602 45.231 21.9172 45.541 22.3047 45.7217V48.9984L18.2252 46.6006V40.8992L23.077 38.0485L27.9476 40.8992V43.8734C27.56 44.0541 27.2448 44.3642 27.0544 44.7522C26.8639 45.1401 26.8097 45.5827 26.9006 46.0063C26.9915 46.43 27.2221 46.8093 27.5542 47.0813C27.8862 47.3533 28.2998 47.5016 28.7261 47.5016C29.1524 47.5016 29.566 47.3533 29.898 47.0813C30.2301 46.8093 30.4607 46.43 30.5516 46.0063C30.6425 45.5827 30.5883 45.1401 30.3978 44.7522C30.2074 44.3642 29.8922 44.0541 29.5046 43.8734V40.0123L23.0801 36.2114L16.6712 39.9743V42.3657L13.5571 40.5349V24.9922L16.6712 23.1614V25.632L21.4577 28.3972L19.4677 29.5597C19.1257 29.3142 18.7125 29.1925 18.2945 29.2144C17.8764 29.2362 17.4776 29.4002 17.1621 29.68C16.8466 29.9599 16.6327 30.3394 16.5546 30.7578C16.4764 31.1761 16.5387 31.6089 16.7314 31.987C16.924 32.365 17.2359 32.6663 17.617 32.8425C17.9981 33.0187 18.4264 33.0596 18.8331 32.9587C19.2398 32.8578 19.6014 32.6209 19.8599 32.286C20.1184 31.9511 20.2589 31.5375 20.2587 31.1118C20.2619 31.0516 20.2619 30.9913 20.2587 30.9312L23.4196 29.0782L29.4392 25.5465V21.3243C29.8268 21.1436 30.142 20.8336 30.3324 20.4456C30.5229 20.0576 30.5771 19.6151 30.4862 19.1914C30.3953 18.7677 30.1647 18.3884 29.8326 18.1165C29.5006 17.8445 29.087 17.6962 28.6607 17.6962C28.2344 17.6962 27.8208 17.8445 27.4888 18.1165C27.1567 18.3884 26.9261 18.7677 26.8352 19.1914C26.7443 19.6151 26.7985 20.0576 26.989 20.4456C27.1794 20.8336 27.4946 21.1436 27.8822 21.3243V24.6311L23.021 27.4818L18.2283 24.7103V19.0089L22.2767 16.6301V20.2745C21.8891 20.4552 21.574 20.7652 21.3835 21.1532C21.1931 21.5412 21.1388 21.9837 21.2297 22.4074C21.3206 22.831 21.5513 23.2103 21.8833 23.4823C22.2154 23.7543 22.6289 23.9026 23.0552 23.9026C23.4816 23.9026 23.8951 23.7543 24.2272 23.4823C24.5592 23.2103 24.7898 22.831 24.8807 22.4074C24.9717 21.9837 24.9174 21.5412 24.7269 21.1532C24.5365 20.7652 24.2213 20.4552 23.8338 20.2745V15.7052L26.8452 13.9536L31.6285 16.7632L31.6191 36.8797ZM27.7202 29.471C27.7202 29.2831 27.775 29.0994 27.8777 28.9431C27.9803 28.7868 28.1262 28.665 28.297 28.5931C28.4677 28.5212 28.6555 28.5024 28.8367 28.539C29.018 28.5757 29.1844 28.6662 29.3151 28.7991C29.4457 28.932 29.5347 29.1013 29.5708 29.2856C29.6068 29.47 29.5883 29.661 29.5176 29.8347C29.4469 30.0083 29.3272 30.1567 29.1735 30.2611C29.0199 30.3655 28.8393 30.4212 28.6545 30.4212C28.4067 30.4212 28.1691 30.3211 27.9939 30.1429C27.8187 29.9647 27.7202 29.723 27.7202 29.471ZM17.4435 36.563C17.4435 36.7509 17.3887 36.9346 17.2861 37.0909C17.1834 37.2471 17.0375 37.3689 16.8668 37.4409C16.6961 37.5128 16.5083 37.5316 16.327 37.4949C16.1458 37.4583 15.9793 37.3678 15.8487 37.2349C15.718 37.102 15.629 36.9327 15.593 36.7483C15.5569 36.564 15.5754 36.3729 15.6462 36.1993C15.7169 36.0257 15.8366 35.8773 15.9902 35.7729C16.1439 35.6684 16.3245 35.6127 16.5093 35.6127C16.633 35.611 16.7558 35.6344 16.8706 35.6814C16.9854 35.7284 17.0899 35.7981 17.178 35.8865C17.266 35.9749 17.336 36.0802 17.3837 36.1964C17.4314 36.3125 17.456 36.4371 17.456 36.563H17.4435ZM28.7136 44.6526C28.8984 44.6526 29.079 44.7084 29.2327 44.8128C29.3863 44.9172 29.5061 45.0656 29.5768 45.2392C29.6475 45.4129 29.666 45.6039 29.6299 45.7883C29.5939 45.9726 29.5049 46.1419 29.3743 46.2748C29.2436 46.4077 29.0771 46.4982 28.8959 46.5349C28.7147 46.5715 28.5268 46.5527 28.3561 46.4808C28.1854 46.4089 28.0395 46.2871 27.9368 46.1308C27.8342 45.9745 27.7794 45.7908 27.7794 45.6029C27.7794 45.3509 27.8778 45.1092 28.053 44.931C28.2282 44.7528 28.4659 44.6526 28.7136 44.6526ZM19.3245 31.1181C19.3245 31.306 19.2697 31.4897 19.167 31.646C19.0644 31.8023 18.9185 31.9241 18.7478 31.996C18.577 32.0679 18.3892 32.0867 18.208 32.0501C18.0267 32.0134 17.8603 31.9229 17.7296 31.79C17.599 31.6571 17.51 31.4878 17.4739 31.3035C17.4379 31.1191 17.4564 30.9281 17.5271 30.7544C17.5978 30.5808 17.7176 30.4324 17.8712 30.328C18.0248 30.2236 18.2055 30.1679 18.3902 30.1679C18.638 30.1679 18.8756 30.268 19.0508 30.4462C19.2261 30.6244 19.3245 30.8661 19.3245 31.1181ZM27.7327 19.598C27.7327 19.4101 27.7875 19.2264 27.8901 19.0701C27.9928 18.9138 28.1387 18.7921 28.3094 18.7201C28.4801 18.6482 28.668 18.6294 28.8492 18.6661C29.0304 18.7027 29.1969 18.7932 29.3275 18.9261C29.4582 19.059 29.5472 19.2283 29.5832 19.4127C29.6193 19.597 29.6008 19.788 29.5301 19.9617C29.4594 20.1353 29.3396 20.2837 29.186 20.3881C29.0323 20.4925 28.8517 20.5483 28.6669 20.5483C28.5432 20.55 28.4204 20.5266 28.3056 20.4796C28.1908 20.4326 28.0863 20.3629 27.9983 20.2745C27.9102 20.1861 27.8402 20.0808 27.7925 19.9646C27.7448 19.8485 27.7202 19.7239 27.7202 19.598H27.7327Z" fill="#4B5563"/>
<path d="M52.4965 21.3341V18.0621L42.3256 12.1484L35.9915 15.8575V49.6892L42.3723 53.4458L52.4965 47.5511V44.2031L57.1677 41.4601V24.0866L52.4965 21.3341ZM55.6106 40.5352L50.9394 43.2782V46.6262L42.3755 51.6087L37.5485 48.7579V39.604L42.2198 36.861V29.3794L37.5485 26.6364V16.7729L42.3288 13.9634L50.9394 18.9775V22.259L55.6106 25.002V40.5352Z" fill="#4B5563"/>
<path d="M69.1016 39.4676V12H74.9977V30.3833C75.8405 29.5554 76.8449 28.9122 77.9473 28.4943C79.0498 28.0764 80.2264 27.8929 81.403 27.9553C82.919 27.8895 84.4317 28.1455 85.8428 28.7066C87.2539 29.2677 88.5317 30.1214 89.593 31.212C90.6543 32.3027 91.4753 33.6059 92.0025 35.0368C92.5298 36.4678 92.7515 37.9943 92.6532 39.5171C92.5845 42.6104 91.313 45.5534 89.1116 47.7149C86.9101 49.8763 83.954 51.084 80.8774 51.0789C74.0451 50.9963 69.1016 46.3386 69.1016 39.4676ZM86.7571 39.4676C86.7571 37.8993 86.1377 36.3953 85.035 35.2864C83.9323 34.1775 82.4368 33.5545 80.8774 33.5545C79.318 33.5545 77.8225 34.1775 76.7198 35.2864C75.6172 36.3953 74.9977 37.8993 74.9977 39.4676C74.9756 40.2555 75.1117 41.0399 75.3979 41.7738C75.6841 42.5077 76.1145 43.176 76.6634 43.7387C77.2122 44.3015 77.8683 44.7472 78.5924 45.0492C79.3164 45.3512 80.0936 45.5032 80.8774 45.4962C81.6638 45.5126 82.4452 45.367 83.1736 45.0684C83.9019 44.7697 84.5618 44.3243 85.1126 43.7596C85.6634 43.1948 86.0934 42.5227 86.3762 41.7846C86.659 41.0465 86.7887 40.258 86.7571 39.4676Z" fill="#4B5563"/>
<path d="M98.5332 12H104.429V50.4678H98.5332V12Z" fill="#4B5563"/>
<path d="M110.308 39.4676C110.377 36.3743 111.649 33.4313 113.85 31.2698C116.052 29.1084 119.008 27.9007 122.084 27.9058C128.917 27.9058 133.844 32.547 133.844 39.4676C133.775 42.558 132.506 45.4986 130.308 47.6596C128.11 49.8205 125.158 51.0302 122.084 51.0294C115.252 50.9964 110.308 46.3386 110.308 39.4676ZM127.964 39.4676C128.003 38.6761 127.878 37.8851 127.598 37.1445C127.318 36.4039 126.888 35.7298 126.335 35.1648C125.783 34.5998 125.12 34.1562 124.388 33.862C123.656 33.5678 122.872 33.4294 122.084 33.4554C121.298 33.4369 120.516 33.5803 119.787 33.8769C119.058 34.1736 118.397 34.6171 117.845 35.1803C117.292 35.7435 116.86 36.4144 116.575 37.1517C116.291 37.889 116.159 38.6771 116.188 39.4676C116.168 40.2564 116.307 41.0411 116.595 41.775C116.883 42.509 117.315 43.1771 117.865 43.7397C118.415 44.3022 119.072 44.7476 119.797 45.0494C120.522 45.3512 121.3 45.5031 122.084 45.4962C122.871 45.5126 123.652 45.3671 124.38 45.0684C125.109 44.7697 125.769 44.3243 126.319 43.7596C126.87 43.1949 127.3 42.5227 127.583 41.7846C127.866 41.0465 127.996 40.258 127.964 39.4676Z" fill="#4B5563"/>
<path d="M138.262 50.6829H143.83C143.786 51.4908 143.91 52.299 144.194 53.0559C144.479 53.8128 144.917 54.5016 145.481 55.0784C146.045 55.6552 146.723 56.1072 147.471 56.4054C148.219 56.7037 149.021 56.8417 149.824 56.8106C150.641 56.8214 151.452 56.6623 152.205 56.3432C152.958 56.0241 153.637 55.552 154.2 54.9565C154.762 54.3609 155.197 53.6548 155.476 52.8825C155.754 52.1101 155.871 51.2881 155.819 50.4682V48.5687C154.946 49.402 153.913 50.0472 152.784 50.4648C151.654 50.8823 150.451 51.0633 149.25 50.9967C147.734 51.0599 146.223 50.8021 144.813 50.2401C143.403 49.6781 142.126 48.8243 141.065 47.7342C140.005 46.6441 139.184 45.3419 138.655 43.9122C138.127 42.4825 137.904 40.9571 137.999 39.4349C138.068 36.3416 139.34 33.3986 141.541 31.2371C143.742 29.0757 146.699 27.868 149.775 27.8731C156.607 27.8731 161.551 32.5143 161.551 39.4349V50.4351C161.551 51.9773 161.245 53.5041 160.65 54.9255C160.055 56.3468 159.183 57.6341 158.086 58.7114C156.988 59.7888 155.688 60.6345 154.261 61.1987C152.833 61.763 151.308 62.0344 149.775 61.9969C142.894 61.9969 138.262 57.653 138.262 50.6829ZM155.721 39.4679C155.763 38.664 155.642 37.8599 155.365 37.1045C155.088 36.3492 154.661 35.6584 154.11 35.0743C153.56 34.4903 152.896 34.0252 152.161 33.7073C151.425 33.3894 150.633 33.2255 149.833 33.2255C149.032 33.2255 148.24 33.3894 147.505 33.7073C146.769 34.0252 146.106 34.4903 145.555 35.0743C145.004 35.6584 144.577 36.3492 144.3 37.1045C144.023 37.8599 143.903 38.664 143.945 39.4679C143.903 40.2718 144.023 41.0759 144.3 41.8313C144.577 42.5867 145.004 43.2774 145.555 43.8615C146.106 44.4455 146.769 44.9107 147.505 45.2285C148.24 45.5464 149.032 45.7103 149.833 45.7103C150.633 45.7103 151.425 45.5464 152.161 45.2285C152.896 44.9107 153.56 44.4455 154.11 43.8615C154.661 43.2774 155.088 42.5867 155.365 41.8313C155.642 41.0759 155.763 40.2718 155.721 39.4679Z" fill="#4B5563"/>
<path d="M166.232 39.4676C166.3 36.3771 167.569 33.4366 169.767 31.2756C171.965 29.1146 174.917 27.905 177.991 27.9058C184.84 27.9058 189.356 32.2332 189.767 39.4676V41.4826H172.013C172.37 42.7974 173.158 43.9526 174.249 44.7617C175.339 45.5709 176.669 45.9867 178.024 45.9422C178.881 45.9653 179.732 45.7964 180.516 45.4479C181.3 45.0994 181.997 44.5799 182.557 43.9271L186.121 47.6269C185.061 48.7024 183.8 49.5556 182.41 50.1368C181.02 50.7181 179.529 51.0159 178.024 51.0129C176.477 51.1082 174.928 50.8773 173.475 50.335C172.022 49.7927 170.698 48.951 169.588 47.864C168.477 46.7769 167.605 45.4684 167.027 44.0225C166.449 42.5765 166.178 41.025 166.232 39.4676ZM183.986 36.9405C183.595 35.6744 182.798 34.5742 181.719 33.8122C180.64 33.0501 179.341 32.6691 178.024 32.7287C176.722 32.7049 175.447 33.1033 174.389 33.8648C173.33 34.6263 172.543 35.7106 172.144 36.957L183.986 36.9405Z" fill="#4B5563"/>
<path d="M195.499 39.4671V28.4834H201.395V39.4671C201.373 40.2551 201.509 41.0395 201.795 41.7734C202.081 42.5072 202.512 43.1755 203.061 43.7383C203.61 44.3011 204.266 44.7468 204.99 45.0488C205.714 45.3507 206.491 45.5028 207.275 45.4958C208.061 45.5122 208.843 45.3666 209.571 45.0679C210.299 44.7693 210.959 44.3239 211.51 43.7591C212.061 43.1944 212.491 42.5223 212.774 41.7842C213.056 41.046 213.186 40.2575 213.154 39.4671V28.4834H219.083V39.4671C219.027 42.5848 217.744 45.5528 215.515 47.7202C213.286 49.8877 210.293 51.0776 207.193 51.0289C205.649 51.123 204.104 50.8899 202.656 50.3448C201.208 49.7997 199.89 48.9548 198.788 47.8647C197.685 46.7747 196.823 45.4639 196.256 44.0173C195.69 42.5706 195.432 41.0205 195.499 39.4671Z" fill="#4B5563"/>
<path d="M225.357 45.4964H239.958C240.199 45.5194 240.441 45.4886 240.669 45.4063C240.897 45.3239 241.103 45.192 241.274 45.02C241.445 44.8481 241.577 44.6402 241.658 44.4113C241.74 44.1825 241.771 43.9382 241.748 43.6961C241.749 43.4661 241.702 43.2384 241.61 43.0277C241.519 42.817 241.385 42.6278 241.216 42.4723C241.047 42.3168 240.848 42.1984 240.632 42.1248C240.415 42.0511 240.186 42.0237 239.958 42.0444H231.45C230.565 42.0466 229.689 41.8729 228.871 41.5334C228.053 41.1938 227.31 40.6951 226.684 40.0658C226.058 39.4366 225.562 38.6892 225.225 37.8666C224.887 37.044 224.714 36.1624 224.717 35.2725C224.75 33.4886 225.471 31.7876 226.727 30.5275C227.983 29.2674 229.676 28.5467 231.45 28.5171H244.474V33.4722H231.976C231.522 33.4585 231.081 33.6235 230.747 33.932C230.413 34.2406 230.211 34.6682 230.186 35.1238C230.163 35.366 230.193 35.6102 230.275 35.8391C230.357 36.068 230.488 36.2758 230.659 36.4478C230.83 36.6198 231.037 36.7517 231.265 36.834C231.492 36.9164 231.735 36.9471 231.976 36.9242H240.434C241.323 36.9016 242.207 37.0608 243.034 37.392C243.86 37.7233 244.61 38.2198 245.24 38.8514C245.869 39.4831 246.365 40.2367 246.696 41.0666C247.028 41.8965 247.188 42.7855 247.168 43.6796C247.122 45.4611 246.398 47.157 245.145 48.4171C243.892 49.6773 242.206 50.4055 240.434 50.4515H225.308L225.357 45.4964Z" fill="#4B5563"/>
<path d="M251.422 45.6115L265.71 33.4551H251.734V28.5H273.282V33.2569L258.993 45.5124H273.774V50.4674H251.422V45.6115Z" fill="#4B5563"/>
</svg>
